<svg width="332" height="138" version="1.1" xmlns="http://www.w3.org/2000/svg" desc="Created with https://tools.webdevpuneet.com/image-to-svg-converter/"><path fill="rgb(0,0,0)" stroke="rgb(0,0,0)" stroke-width="1" opacity="0" d="M 0 0 L 332 0 L 332 138 L 0 138 L 0 0 Z M 152 4 L 141 6 L 133 9 L 119 18 L 105 34 L 98 49 L 95 65 L 97 86 Q 101 101 110 112 Q 123 129 150 134 L 164 134 L 174 132 L 193 122 Q 205 112 212 97 L 213 97 L 213 133 L 248 133 L 248 95 L 254 88 L 260 83 L 292 132 L 293 133 L 329 133 L 280 63 L 326 6 L 291 5 L 252 53 L 248 56 L 248 5 L 213 5 L 213 42 L 204 28 Q 194 14 177 7 L 163 4 L 152 4 Z M 48 5 L 16 59 L 8 77 L 5 89 L 7 106 L 15 121 Q 24 134 44 137 L 58 136 L 71 130 Q 86 120 90 98 L 90 87 L 85 71 L 73 48 L 48 5 Z "></path><path fill="rgb(0,0,0)" stroke="rgb(0,0,0)" stroke-width="1" opacity="0" d="M 150.5 36 Q 160 34.5 165.5 37 L 175 44.5 Q 183.3 54.7 182 74.5 Q 179.8 75.8 181 80.5 L 176 92.5 L 169.5 99 Q 163.7 104.2 150.5 102 Q 142.5 99.5 138 93.5 Q 130.4 83.6 131 65.5 L 135 49.5 L 142.5 40 L 150.5 36 Z "></path><path fill="rgb(0,0,0)" stroke="rgb(0,0,0)" stroke-width="1" opacity="0" d="M 67.5 55 L 69 58.5 Q 57.8 68.3 50 81.5 Q 42.6 93.1 39 108.5 L 36.5 111 L 33.5 112 L 29 108.5 Q 23.9 95.1 15 85.5 Q 15.8 83.3 19.5 84 Q 28 89.1 31 98 L 34 96.5 Q 43 76 58.5 62 L 67.5 55 Z "></path><path fill="rgb(126,217,87)" stroke="rgb(126,217,87)" stroke-width="1" opacity="1" d="M 47.5 5 L 84 69.5 Q 89 79.5 90 93.5 L 88 104.5 L 84 114.5 L 72.5 128 L 58.5 135 Q 51.4 137.4 40.5 136 Q 26.4 132.6 18 123.5 Q 10.4 115.6 7 103.5 L 6 85.5 L 16 59.5 L 47.5 5 Z M 68 55 L 63 58 Q 43 74 33 98 L 28 92 L 19 83 L 15 84 L 30 111 L 33 112 L 38 111 L 51 81 L 65 63 L 70 59 L 68 55 Z "></path><path fill="rgb(126,217,87)" stroke="rgb(126,217,87)" stroke-width="1" opacity="1" d="M 147.5 5 L 166.5 5 L 177.5 8 Q 191.8 13.8 201 24.5 Q 208.8 32.2 212.5 44 L 213 5 L 246.5 5 L 248 6.5 L 248.5 57 L 290.5 5 L 324.5 5 L 325 6.5 L 283 57.5 L 280 63.5 L 328 131.5 L 292 132 L 259.5 82 L 257 83.5 L 248 94.5 L 248 132 L 213 132 L 213 95.5 L 212 95.5 Q 205.9 110.4 194.5 120 L 177.5 130 L 167.5 133 L 155.5 134 L 154.5 133 L 145.5 133 L 135.5 130 Q 121.9 124.6 113 114.5 Q 104 104.5 99 90.5 L 96 77.5 L 96 59.5 Q 101.4 31.4 120.5 17 Q 130.9 7.9 147.5 5 Z M 153 35 L 145 38 L 135 49 L 131 62 L 131 78 Q 132 87 137 93 Q 142 101 153 103 L 162 103 L 171 99 Q 177 94 180 86 L 183 69 L 182 68 L 181 56 L 175 44 L 165 36 L 153 35 Z "></path><path fill="rgb(176,231,153)" stroke="rgb(176,231,153)" stroke-width="1" opacity="1" d="M 151.5 4 L 163 4.5 L 151.5 5 L 151.5 4 Z "></path><path fill="rgb(176,231,153)" stroke="rgb(176,231,153)" stroke-width="1" opacity="1" d="M 144.5 5 L 147 5.5 L 144.5 6 L 144.5 5 Z "></path><path fill="rgb(176,231,153)" stroke="rgb(176,231,153)" stroke-width="1" opacity="1" d="M 167.5 5 L 170 5.5 L 167.5 6 L 167.5 5 Z "></path><path fill="rgb(176,231,153)" stroke="rgb(176,231,153)" stroke-width="1" opacity="1" d="M 48.5 6 L 49.5 8 L 48.5 6 Z "></path><path fill="rgb(176,231,153)" stroke="rgb(176,231,153)" stroke-width="1" opacity="1" d="M 288.5 7 L 286.5 10 L 288.5 7 Z "></path><path fill="rgb(176,231,153)" stroke="rgb(176,231,153)" stroke-width="1" opacity="1" d="M 323.5 8 L 321.5 11 L 323.5 8 Z "></path><path fill="rgb(176,231,153)" stroke="rgb(176,231,153)" stroke-width="1" opacity="1" d="M 44.5 10 L 43.5 12 L 44.5 10 Z "></path><path fill="rgb(176,231,153)" stroke="rgb(176,231,153)" stroke-width="1" opacity="1" d="M 284.5 12 L 282.5 15 L 284.5 12 Z "></path><path fill="rgb(176,231,153)" stroke="rgb(176,231,153)" stroke-width="1" opacity="1" d="M 52.5 13 L 53.5 15 L 52.5 13 Z "></path><path fill="rgb(176,231,153)" stroke="rgb(176,231,153)" stroke-width="1" opacity="1" d="M 318.5 14 L 317.5 16 L 318.5 14 Z "></path><path fill="rgb(176,231,153)" stroke="rgb(176,231,153)" stroke-width="1" opacity="1" d="M 122.5 15 L 121.5 17 L 122.5 15 Z "></path><path fill="rgb(176,231,153)" stroke="rgb(176,231,153)" stroke-width="1" opacity="1" d="M 192.5 16 L 193.5 18 L 192.5 16 Z "></path><path fill="rgb(176,231,153)" stroke="rgb(176,231,153)" stroke-width="1" opacity="1" d="M 40.5 17 L 39.5 19 L 40.5 17 Z "></path><path fill="rgb(176,231,153)" stroke="rgb(176,231,153)" stroke-width="1" opacity="1" d="M 118.5 18 L 110.5 27 L 118.5 18 Z "></path><path fill="rgb(176,231,153)" stroke="rgb(176,231,153)" stroke-width="1" opacity="1" d="M 279.5 18 L 277.5 21 L 279.5 18 Z "></path><path fill="rgb(176,231,153)" stroke="rgb(176,231,153)" stroke-width="1" opacity="1" d="M 314.5 19 L 312.5 22 L 314.5 19 Z "></path><path fill="rgb(176,231,153)" stroke="rgb(176,231,153)" stroke-width="1" opacity="1" d="M 56.5 20 L 57.5 22 L 56.5 20 Z "></path><path fill="rgb(176,231,153)" stroke="rgb(176,231,153)" stroke-width="1" opacity="1" d="M 275.5 23 L 273.5 26 L 275.5 23 Z "></path><path fill="rgb(176,231,153)" stroke="rgb(176,231,153)" stroke-width="1" opacity="1" d="M 36.5 24 L 35.5 26 L 36.5 24 Z "></path><path fill="rgb(176,231,153)" stroke="rgb(176,231,153)" stroke-width="1" opacity="1" d="M 310.5 24 L 308.5 27 L 310.5 24 Z "></path><path fill="rgb(176,231,153)" stroke="rgb(176,231,153)" stroke-width="1" opacity="1" d="M 201.5 25 L 203.5 28 L 201.5 25 Z "></path><path fill="rgb(176,231,153)" stroke="rgb(176,231,153)" stroke-width="1" opacity="1" d="M 271.5 28 L 269.5 31 L 271.5 28 Z "></path><path fill="rgb(176,231,153)" stroke="rgb(176,231,153)" stroke-width="1" opacity="1" d="M 108.5 29 L 107.5 31 L 108.5 29 Z "></path><path fill="rgb(176,231,153)" stroke="rgb(176,231,153)" stroke-width="1" opacity="1" d="M 306.5 29 L 304.5 32 L 306.5 29 Z "></path><path fill="rgb(176,231,153)" stroke="rgb(176,231,153)" stroke-width="1" opacity="1" d="M 205.5 30 L 206.5 32 L 205.5 30 Z "></path><path fill="rgb(176,231,153)" stroke="rgb(176,231,153)" stroke-width="1" opacity="1" d="M 106.5 32 L 105.5 34 L 106.5 32 Z "></path><path fill="rgb(176,231,153)" stroke="rgb(176,231,153)" stroke-width="1" opacity="1" d="M 266.5 34 L 264.5 37 L 266.5 34 Z "></path><path fill="rgb(176,231,153)" stroke="rgb(176,231,153)" stroke-width="1" opacity="1" d="M 152.5 35 L 161 35.5 L 152.5 36 L 152.5 35 Z "></path><path fill="rgb(176,231,153)" stroke="rgb(176,231,153)" stroke-width="1" opacity="1" d="M 208.5 35 L 209.5 37 L 208.5 35 Z "></path><path fill="rgb(176,231,153)" stroke="rgb(176,231,153)" stroke-width="1" opacity="1" d="M 301.5 35 L 300.5 37 L 301.5 35 Z "></path><path fill="rgb(176,231,153)" stroke="rgb(176,231,153)" stroke-width="1" opacity="1" d="M 144.5 38 L 143.5 40 L 144.5 38 Z "></path><path fill="rgb(176,231,153)" stroke="rgb(176,231,153)" stroke-width="1" opacity="1" d="M 168.5 38 L 169.5 40 L 168.5 38 Z "></path><path fill="rgb(176,231,153)" stroke="rgb(176,231,153)" stroke-width="1" opacity="1" d="M 262.5 39 L 260.5 42 L 262.5 39 Z "></path><path fill="rgb(176,231,153)" stroke="rgb(176,231,153)" stroke-width="1" opacity="1" d="M 297.5 40 L 295.5 43 L 297.5 40 Z "></path><path fill="rgb(176,231,153)" stroke="rgb(176,231,153)" stroke-width="1" opacity="1" d="M 211.5 41 L 213 43.5 L 212 43.5 L 211.5 41 Z "></path><path fill="rgb(176,231,153)" stroke="rgb(176,231,153)" stroke-width="1" opacity="1" d="M 173.5 42 L 174.5 44 L 173.5 42 Z "></path><path fill="rgb(176,231,153)" stroke="rgb(176,231,153)" stroke-width="1" opacity="1" d="M 138.5 44 L 137.5 46 L 138.5 44 Z "></path><path fill="rgb(176,231,153)" stroke="rgb(176,231,153)" stroke-width="1" opacity="1" d="M 258.5 44 L 256.5 47 L 258.5 44 Z "></path><path fill="rgb(176,231,153)" stroke="rgb(176,231,153)" stroke-width="1" opacity="1" d="M 175.5 45 L 176.5 47 L 175.5 45 Z "></path><path fill="rgb(176,231,153)" stroke="rgb(176,231,153)" stroke-width="1" opacity="1" d="M 293.5 45 L 291.5 48 L 293.5 45 Z "></path><path fill="rgb(176,231,153)" stroke="rgb(176,231,153)" stroke-width="1" opacity="1" d="M 71.5 46 L 72.5 48 L 71.5 46 Z "></path><path fill="rgb(176,231,153)" stroke="rgb(176,231,153)" stroke-width="1" opacity="1" d="M 136.5 47 L 135.5 49 L 136.5 47 Z "></path><path fill="rgb(176,231,153)" stroke="rgb(176,231,153)" stroke-width="1" opacity="1" d="M 21.5 50 L 20.5 52 L 21.5 50 Z "></path><path fill="rgb(176,231,153)" stroke="rgb(176,231,153)" stroke-width="1" opacity="1" d="M 253.5 50 L 252.5 52 L 253.5 50 Z "></path><path fill="rgb(176,231,153)" stroke="rgb(176,231,153)" stroke-width="1" opacity="1" d="M 289.5 50 L 287.5 53 L 289.5 50 Z "></path><path fill="rgb(176,231,153)" stroke="rgb(176,231,153)" stroke-width="1" opacity="1" d="M 75.5 53 L 76.5 55 L 75.5 53 Z "></path><path fill="rgb(176,231,153)" stroke="rgb(176,231,153)" stroke-width="1" opacity="1" d="M 249.5 55 L 248.5 57 L 249.5 55 Z "></path><path fill="rgb(176,231,153)" stroke="rgb(176,231,153)" stroke-width="1" opacity="1" d="M 96.5 56 L 97 58.5 L 96 58.5 L 96.5 56 Z "></path><path fill="rgb(176,231,153)" stroke="rgb(176,231,153)" stroke-width="1" opacity="1" d="M 284.5 56 L 283.5 58 L 284.5 56 Z "></path><path fill="rgb(176,231,153)" stroke="rgb(176,231,153)" stroke-width="1" opacity="1" d="M 17.5 57 L 16.5 59 L 17.5 57 Z "></path><path fill="rgb(176,231,153)" stroke="rgb(176,231,153)" stroke-width="1" opacity="1" d="M 62.5 58 L 59.5 62 L 62.5 58 Z "></path><path fill="rgb(176,231,153)" stroke="rgb(176,231,153)" stroke-width="1" opacity="1" d="M 181.5 59 L 182 61.5 L 181 61.5 L 181.5 59 Z "></path><path fill="rgb(176,231,153)" stroke="rgb(176,231,153)" stroke-width="1" opacity="1" d="M 131.5 61 L 132 64.5 L 131 64.5 L 131.5 61 Z "></path><path fill="rgb(176,231,153)" stroke="rgb(176,231,153)" stroke-width="1" opacity="1" d="M 64.5 63 L 60.5 68 L 64.5 63 Z "></path><path fill="rgb(176,231,153)" stroke="rgb(176,231,153)" stroke-width="1" opacity="1" d="M 280.5 63 L 281.5 65 L 280.5 63 Z "></path><path fill="rgb(176,231,153)" stroke="rgb(176,231,153)" stroke-width="1" opacity="1" d="M 95.5 64 L 96 72.5 L 95 72.5 L 95.5 64 Z "></path><path fill="rgb(176,231,153)" stroke="rgb(176,231,153)" stroke-width="1" opacity="1" d="M 282.5 66 L 283.5 68 L 282.5 66 Z "></path><path fill="rgb(176,231,153)" stroke="rgb(176,231,153)" stroke-width="1" opacity="1" d="M 51.5 69 L 48.5 73 L 51.5 69 Z "></path><path fill="rgb(176,231,153)" stroke="rgb(176,231,153)" stroke-width="1" opacity="1" d="M 285.5 70 L 286.5 72 L 285.5 70 Z "></path><path fill="rgb(176,231,153)" stroke="rgb(176,231,153)" stroke-width="1" opacity="1" d="M 57.5 71 L 56.5 73 L 57.5 71 Z "></path><path fill="rgb(176,231,153)" stroke="rgb(176,231,153)" stroke-width="1" opacity="1" d="M 287.5 73 L 288.5 75 L 287.5 73 Z "></path><path fill="rgb(176,231,153)" stroke="rgb(176,231,153)" stroke-width="1" opacity="1" d="M 131.5 74 L 132 77.5 L 131 77.5 L 131.5 74 Z "></path><path fill="rgb(176,231,153)" stroke="rgb(176,231,153)" stroke-width="1" opacity="1" d="M 46.5 75 L 45.5 77 L 46.5 75 Z "></path><path fill="rgb(176,231,153)" stroke="rgb(176,231,153)" stroke-width="1" opacity="1" d="M 181.5 75 L 182 78.5 L 181 78.5 L 181.5 75 Z "></path><path fill="rgb(176,231,153)" stroke="rgb(176,231,153)" stroke-width="1" opacity="1" d="M 96.5 78 L 97 80.5 L 96 80.5 L 96.5 78 Z "></path><path fill="rgb(176,231,153)" stroke="rgb(176,231,153)" stroke-width="1" opacity="1" d="M 292.5 80 L 293.5 82 L 292.5 80 Z "></path><path fill="rgb(176,231,153)" stroke="rgb(176,231,153)" stroke-width="1" opacity="1" d="M 41.5 82 L 40.5 84 L 41.5 82 Z "></path><path fill="rgb(176,231,153)" stroke="rgb(176,231,153)" stroke-width="1" opacity="1" d="M 258.5 82 L 261 83.5 L 259.5 83 L 257.5 84 L 258.5 82 Z "></path><path fill="rgb(176,231,153)" stroke="rgb(176,231,153)" stroke-width="1" opacity="1" d="M 294.5 83 L 295.5 85 L 294.5 83 Z "></path><path fill="rgb(176,231,153)" stroke="rgb(176,231,153)" stroke-width="1" opacity="1" d="M 21.5 85 L 27.5 92 L 21.5 85 Z "></path><path fill="rgb(176,231,153)" stroke="rgb(176,231,153)" stroke-width="1" opacity="1" d="M 48.5 85 L 48 86.5 L 47.5 88 L 47 86.5 L 48.5 85 Z "></path><path fill="rgb(176,231,153)" stroke="rgb(176,231,153)" stroke-width="1" opacity="1" d="M 261.5 85 L 262.5 87 L 261.5 85 Z "></path><path fill="rgb(176,231,153)" stroke="rgb(176,231,153)" stroke-width="1" opacity="1" d="M 89.5 86 L 90 88.5 L 89 88.5 L 89.5 86 Z "></path><path fill="rgb(176,231,153)" stroke="rgb(176,231,153)" stroke-width="1" opacity="1" d="M 16.5 87 L 17.5 89 L 16.5 87 Z "></path><path fill="rgb(176,231,153)" stroke="rgb(176,231,153)" stroke-width="1" opacity="1" d="M 38.5 87 L 37.5 89 L 38.5 87 Z "></path><path fill="rgb(176,231,153)" stroke="rgb(176,231,153)" stroke-width="1" opacity="1" d="M 5.5 88 L 6 94.5 L 5 94.5 L 5.5 88 Z "></path><path fill="rgb(176,231,153)" stroke="rgb(176,231,153)" stroke-width="1" opacity="1" d="M 253.5 88 L 250.5 92 L 253.5 88 Z "></path><path fill="rgb(176,231,153)" stroke="rgb(176,231,153)" stroke-width="1" opacity="1" d="M 263.5 88 L 264.5 90 L 263.5 88 Z "></path><path fill="rgb(176,231,153)" stroke="rgb(176,231,153)" stroke-width="1" opacity="1" d="M 299.5 90 L 300.5 92 L 299.5 90 Z "></path><path fill="rgb(176,231,153)" stroke="rgb(176,231,153)" stroke-width="1" opacity="1" d="M 265.5 91 L 266.5 93 L 265.5 91 Z "></path><path fill="rgb(176,231,153)" stroke="rgb(176,231,153)" stroke-width="1" opacity="1" d="M 301.5 93 L 302.5 95 L 301.5 93 Z "></path><path fill="rgb(176,231,153)" stroke="rgb(176,231,153)" stroke-width="1" opacity="1" d="M 29.5 94 L 30.5 96 L 29.5 94 Z "></path><path fill="rgb(176,231,153)" stroke="rgb(176,231,153)" stroke-width="1" opacity="1" d="M 89.5 94 L 90 97.5 L 89 97.5 L 89.5 94 Z "></path><path fill="rgb(176,231,153)" stroke="rgb(176,231,153)" stroke-width="1" opacity="1" d="M 174.5 94 L 170.5 99 L 174.5 94 Z "></path><path fill="rgb(176,231,153)" stroke="rgb(176,231,153)" stroke-width="1" opacity="1" d="M 23.5 98 L 24.5 100 L 23.5 98 Z "></path><path fill="rgb(176,231,153)" stroke="rgb(176,231,153)" stroke-width="1" opacity="1" d="M 143.5 98 L 144.5 100 L 143.5 98 Z "></path><path fill="rgb(176,231,153)" stroke="rgb(176,231,153)" stroke-width="1" opacity="1" d="M 6.5 99 L 7 101.5 L 6 101.5 L 6.5 99 Z "></path><path fill="rgb(176,231,153)" stroke="rgb(176,231,153)" stroke-width="1" opacity="1" d="M 306.5 100 L 307.5 102 L 306.5 100 Z "></path><path fill="rgb(176,231,153)" stroke="rgb(176,231,153)" stroke-width="1" opacity="1" d="M 152.5 102 L 162 102.5 L 152.5 103 L 152.5 102 Z "></path><path fill="rgb(176,231,153)" stroke="rgb(176,231,153)" stroke-width="1" opacity="1" d="M 208.5 103 L 207.5 105 L 208.5 103 Z "></path><path fill="rgb(176,231,153)" stroke="rgb(176,231,153)" stroke-width="1" opacity="1" d="M 308.5 103 L 309.5 105 L 308.5 103 Z "></path><path fill="rgb(176,231,153)" stroke="rgb(176,231,153)" stroke-width="1" opacity="1" d="M 105.5 104 L 106.5 106 L 105.5 104 Z "></path><path fill="rgb(176,231,153)" stroke="rgb(176,231,153)" stroke-width="1" opacity="1" d="M 206.5 106 L 205.5 108 L 206.5 106 Z "></path><path fill="rgb(176,231,153)" stroke="rgb(176,231,153)" stroke-width="1" opacity="1" d="M 107.5 107 L 108.5 109 L 107.5 107 Z "></path><path fill="rgb(176,231,153)" stroke="rgb(176,231,153)" stroke-width="1" opacity="1" d="M 311.5 107 L 312.5 109 L 311.5 107 Z "></path><path fill="rgb(176,231,153)" stroke="rgb(176,231,153)" stroke-width="1" opacity="1" d="M 38.5 109 L 37.5 111 L 38.5 109 Z "></path><path fill="rgb(176,231,153)" stroke="rgb(176,231,153)" stroke-width="1" opacity="1" d="M 203.5 110 L 202.5 112 L 203.5 110 Z "></path><path fill="rgb(176,231,153)" stroke="rgb(176,231,153)" stroke-width="1" opacity="1" d="M 313.5 110 L 314.5 112 L 313.5 110 Z "></path><path fill="rgb(176,231,153)" stroke="rgb(176,231,153)" stroke-width="1" opacity="1" d="M 110.5 111 L 112.5 114 L 110.5 111 Z "></path><path fill="rgb(176,231,153)" stroke="rgb(176,231,153)" stroke-width="1" opacity="1" d="M 116.5 117 L 119.5 121 L 116.5 117 Z "></path><path fill="rgb(176,231,153)" stroke="rgb(176,231,153)" stroke-width="1" opacity="1" d="M 282.5 117 L 283.5 119 L 282.5 117 Z "></path><path fill="rgb(176,231,153)" stroke="rgb(176,231,153)" stroke-width="1" opacity="1" d="M 318.5 117 L 319.5 119 L 318.5 117 Z "></path><path fill="rgb(176,231,153)" stroke="rgb(176,231,153)" stroke-width="1" opacity="1" d="M 81.5 118 L 79.5 121 L 81.5 118 Z "></path><path fill="rgb(176,231,153)" stroke="rgb(176,231,153)" stroke-width="1" opacity="1" d="M 15.5 120 L 17.5 123 L 15.5 120 Z "></path><path fill="rgb(176,231,153)" stroke="rgb(176,231,153)" stroke-width="1" opacity="1" d="M 193.5 120 L 192.5 122 L 193.5 120 Z "></path><path fill="rgb(176,231,153)" stroke="rgb(176,231,153)" stroke-width="1" opacity="1" d="M 284.5 120 L 285.5 122 L 284.5 120 Z "></path><path fill="rgb(176,231,153)" stroke="rgb(176,231,153)" stroke-width="1" opacity="1" d="M 320.5 120 L 321.5 122 L 320.5 120 Z "></path><path fill="rgb(176,231,153)" stroke="rgb(176,231,153)" stroke-width="1" opacity="1" d="M 122.5 122 L 123.5 124 L 122.5 122 Z "></path><path fill="rgb(176,231,153)" stroke="rgb(176,231,153)" stroke-width="1" opacity="1" d="M 286.5 123 L 287.5 125 L 286.5 123 Z "></path><path fill="rgb(176,231,153)" stroke="rgb(176,231,153)" stroke-width="1" opacity="1" d="M 20.5 125 L 23.5 129 L 20.5 125 Z "></path><path fill="rgb(176,231,153)" stroke="rgb(176,231,153)" stroke-width="1" opacity="1" d="M 288.5 126 L 289.5 128 L 288.5 126 Z "></path><path fill="rgb(176,231,153)" stroke="rgb(176,231,153)" stroke-width="1" opacity="1" d="M 325.5 127 L 326.5 129 L 325.5 127 Z "></path><path fill="rgb(176,231,153)" stroke="rgb(176,231,153)" stroke-width="1" opacity="1" d="M 71.5 128 L 70.5 130 L 71.5 128 Z "></path><path fill="rgb(176,231,153)" stroke="rgb(176,231,153)" stroke-width="1" opacity="1" d="M 25.5 129 L 26.5 131 L 25.5 129 Z "></path><path fill="rgb(176,231,153)" stroke="rgb(176,231,153)" stroke-width="1" opacity="1" d="M 290.5 129 L 291.5 131 L 290.5 129 Z "></path><path fill="rgb(176,231,153)" stroke="rgb(176,231,153)" stroke-width="1" opacity="1" d="M 327.5 130 L 329 133 L 292 132.5 L 328 131.5 L 327.5 130 Z "></path><path fill="rgb(176,231,153)" stroke="rgb(176,231,153)" stroke-width="1" opacity="1" d="M 66.5 131 L 65.5 133 L 64 132.5 L 66.5 131 Z "></path><path fill="rgb(176,231,153)" stroke="rgb(176,231,153)" stroke-width="1" opacity="1" d="M 213.5 132 L 248 132.5 L 213.5 133 L 213.5 132 Z "></path><path fill="rgb(176,231,153)" stroke="rgb(176,231,153)" stroke-width="1" opacity="1" d="M 149.5 133 L 155 133.5 L 149.5 134 L 149.5 133 Z "></path><path fill="rgb(176,231,153)" stroke="rgb(176,231,153)" stroke-width="1" opacity="1" d="M 158.5 133 L 164 133.5 L 158.5 134 L 158.5 133 Z "></path><path fill="rgb(176,231,153)" stroke="rgb(176,231,153)" stroke-width="1" opacity="1" d="M 55.5 135 L 58 135.5 L 55.5 136 L 55.5 135 Z "></path><path fill="rgb(176,231,153)" stroke="rgb(176,231,153)" stroke-width="1" opacity="1" d="M 43.5 136 L 52 136.5 L 43.5 137 L 43.5 136 Z "></path></svg>