<svg width="331" height="463" version="1.1" xmlns="http://www.w3.org/2000/svg" desc="Created with https://tools.webdevpuneet.com/image-to-svg-converter/"><path fill="rgb(0,0,0)" stroke="rgb(0,0,0)" stroke-width="1" opacity="0" d="M 0 0 L 331 0 L 331 463 L 0 463 L 0 0 Z M 174 9 L 62 202 L 44 244 L 37 265 L 32 288 L 32 314 L 33 315 L 33 323 L 39 348 Q 49 379 69 402 Q 88 424 117 438 L 142 447 L 158 450 L 173 450 L 174 451 L 175 450 L 196 449 L 222 442 Q 246 432 264 416 Q 288 395 302 364 L 310 341 L 315 313 L 315 288 L 313 277 L 303 244 L 291 215 L 271 177 L 174 9 Z "></path><path fill="rgb(0,0,0)" stroke="rgb(0,0,0)" stroke-width="1" opacity="0" d="M 239.5 178 Q 242.8 176.9 242 179.5 L 248 186.5 L 228 205.5 Q 199.5 236 178 273.5 Q 156.8 309.3 145 354.5 L 136.5 365 Q 132.5 368.5 123.5 367 L 116 363 L 111 356.5 Q 99.5 330.5 85 307.5 Q 75.5 291 63 277.5 L 75.5 272 L 103 297.5 L 122.5 323 Q 154.9 253.9 206.5 204 L 239.5 178 Z "></path><path fill="rgb(126,217,87)" stroke="rgb(126,217,87)" stroke-width="1" opacity="1" d="M 173.5 9 L 271 176.5 L 291 214.5 L 303 243.5 L 313 276.5 L 315 287.5 L 315 312.5 L 310 340.5 L 302 363.5 Q 287.9 394.9 263.5 416 Q 245.6 432.1 221.5 442 L 195.5 449 L 174.5 450 L 173.5 451 L 172.5 450 L 157.5 450 L 141.5 447 L 116.5 438 Q 88.3 424.3 69 401.5 Q 49.3 379.2 39 347.5 L 33 322.5 L 33 314.5 L 32 313.5 L 32 287.5 L 37 264.5 L 44 243.5 L 62 201.5 L 173.5 9 Z M 240 178 L 207 204 Q 155 254 123 323 L 103 298 L 76 272 L 63 278 Q 75 291 85 308 Q 100 330 111 357 L 116 363 L 124 367 Q 133 369 137 365 L 145 355 Q 157 309 178 274 Q 200 236 228 206 L 248 187 L 242 180 Q 243 177 240 178 Z "></path></svg>