<svg width="444" height="243" version="1.1" xmlns="http://www.w3.org/2000/svg" desc="Created with https://tools.webdevpuneet.com/image-to-svg-converter/"><path fill="rgb(126,217,87)" stroke="rgb(126,217,87)" stroke-width="1" opacity="1" d="M 111.5 2 L 138.5 3 L 159.5 9 Q 183.5 19.5 200 37.5 Q 215 53.5 223.5 76 L 224 3 L 288 3 L 288 98.5 L 292 95.5 L 367.5 3 L 432 3.5 L 347 109.5 L 438 238.5 L 371.5 239 L 310 145 L 305 148.5 L 288 168.5 L 288 239 L 224 239 L 224 168.5 L 222 169.5 Q 210.6 198.1 188.5 216 Q 176.2 226.2 160.5 233 L 134.5 240 L 113.5 241 L 112.5 240 L 97.5 239 L 75.5 232 Q 54.8 222.2 40 206.5 Q 24.2 189.8 15 166.5 L 9 146.5 L 8 134.5 L 7 133.5 L 7 107.5 L 12 83.5 L 22 60.5 Q 31.6 43.6 45.5 31 Q 58.5 19 75.5 11 L 92.5 5 L 102.5 3 L 110.5 3 L 111.5 2 Z M 119 23 L 78 93 Q 68 110 63 132 L 63 146 L 67 161 L 79 180 Q 91 193 113 197 L 126 197 L 135 195 L 152 186 L 166 170 L 172 157 L 175 141 L 174 129 L 167 108 Q 144 64 119 23 Z "></path><path fill="rgb(0,0,0)" stroke="rgb(0,0,0)" stroke-width="1" opacity="0" d="M 0 0 L 444 0 L 444 243 L 0 243 L 0 0 Z M 107 2 L 91 5 L 75 11 L 51 26 Q 33 40 22 60 L 11 86 L 8 98 L 7 113 L 6 114 L 7 139 L 11 157 Q 19 183 35 202 Q 49 218 69 229 L 88 237 L 109 241 L 138 240 L 157 235 Q 177 227 193 213 Q 212 196 222 171 L 223 171 L 223 239 L 288 239 L 288 170 L 303 152 L 310 146 L 369 237 L 372 239 L 438 239 L 434 232 L 348 110 L 351 104 L 432 5 L 432 3 L 367 3 L 289 99 L 288 99 L 288 3 L 223 3 L 223 73 Q 216 55 204 42 Q 187 21 161 9 L 150 5 L 134 2 L 107 2 Z "></path><path fill="rgb(0,0,0)" stroke="rgb(0,0,0)" stroke-width="1" opacity="0" d="M 118.5 24 L 128 38.5 L 166 106.5 L 173 126.5 L 174 145.5 Q 169 172.5 150.5 186 Q 141.7 193.2 128.5 196 L 109.5 196 Q 88 191.5 77 176.5 Q 69.9 168.1 66 156.5 L 64 148.5 L 63 134.5 Q 67.6 111.1 78 93.5 L 118.5 24 Z M 149 99 L 142 104 Q 118 124 104 154 Q 105 156 102 155 L 94 143 L 86 136 L 80 139 Q 92 153 100 172 Q 102 175 108 174 L 113 168 L 119 149 L 130 129 L 152 102 L 149 99 Z "></path><path fill="rgb(173,230,148)" stroke="rgb(173,230,148)" stroke-width="1" opacity="1" d="M 106.5 2 L 111 2.5 L 106.5 3 L 106.5 2 Z "></path><path fill="rgb(173,230,148)" stroke="rgb(173,230,148)" stroke-width="1" opacity="1" d="M 129.5 2 L 134 2.5 L 129.5 3 L 129.5 2 Z "></path><path fill="rgb(173,230,148)" stroke="rgb(173,230,148)" stroke-width="1" opacity="1" d="M 99.5 3 L 102 3.5 L 99.5 4 L 99.5 3 Z "></path><path fill="rgb(173,230,148)" stroke="rgb(173,230,148)" stroke-width="1" opacity="1" d="M 223.5 3 L 224 75.5 L 223 75.5 L 222 73.5 L 223 72.5 L 223.5 3 Z "></path><path fill="rgb(173,230,148)" stroke="rgb(173,230,148)" stroke-width="1" opacity="1" d="M 366.5 3 L 363.5 7 L 366.5 3 Z "></path><path fill="rgb(173,230,148)" stroke="rgb(173,230,148)" stroke-width="1" opacity="1" d="M 431.5 4 L 430.5 6 L 431.5 4 Z "></path><path fill="rgb(173,230,148)" stroke="rgb(173,230,148)" stroke-width="1" opacity="1" d="M 427.5 9 L 425.5 12 L 427.5 9 Z "></path><path fill="rgb(173,230,148)" stroke="rgb(173,230,148)" stroke-width="1" opacity="1" d="M 360.5 10 L 358.5 13 L 360.5 10 Z "></path><path fill="rgb(173,230,148)" stroke="rgb(173,230,148)" stroke-width="1" opacity="1" d="M 68.5 14 L 67.5 16 L 68.5 14 Z "></path><path fill="rgb(173,230,148)" stroke="rgb(173,230,148)" stroke-width="1" opacity="1" d="M 423.5 14 L 421.5 17 L 423.5 14 Z "></path><path fill="rgb(173,230,148)" stroke="rgb(173,230,148)" stroke-width="1" opacity="1" d="M 356.5 15 L 354.5 18 L 356.5 15 Z "></path><path fill="rgb(173,230,148)" stroke="rgb(173,230,148)" stroke-width="1" opacity="1" d="M 63.5 17 L 62.5 19 L 63.5 17 Z "></path><path fill="rgb(173,230,148)" stroke="rgb(173,230,148)" stroke-width="1" opacity="1" d="M 177.5 18 L 178.5 20 L 177.5 18 Z "></path><path fill="rgb(173,230,148)" stroke="rgb(173,230,148)" stroke-width="1" opacity="1" d="M 419.5 19 L 417.5 22 L 419.5 19 Z "></path><path fill="rgb(173,230,148)" stroke="rgb(173,230,148)" stroke-width="1" opacity="1" d="M 180.5 20 L 181.5 22 L 180.5 20 Z "></path><path fill="rgb(173,230,148)" stroke="rgb(173,230,148)" stroke-width="1" opacity="1" d="M 352.5 20 L 350.5 23 L 352.5 20 Z "></path><path fill="rgb(173,230,148)" stroke="rgb(173,230,148)" stroke-width="1" opacity="1" d="M 57.5 21 L 56.5 23 L 57.5 21 Z "></path><path fill="rgb(173,230,148)" stroke="rgb(173,230,148)" stroke-width="1" opacity="1" d="M 54.5 23 L 53.5 25 L 54.5 23 Z "></path><path fill="rgb(173,230,148)" stroke="rgb(173,230,148)" stroke-width="1" opacity="1" d="M 118.5 23 L 120.5 26 Q 118.8 22.9 117 24.5 L 118.5 23 Z "></path><path fill="rgb(173,230,148)" stroke="rgb(173,230,148)" stroke-width="1" opacity="1" d="M 184.5 23 L 185.5 25 L 184.5 23 Z "></path><path fill="rgb(173,230,148)" stroke="rgb(173,230,148)" stroke-width="1" opacity="1" d="M 415.5 24 L 413.5 27 L 415.5 24 Z "></path><path fill="rgb(173,230,148)" stroke="rgb(173,230,148)" stroke-width="1" opacity="1" d="M 50.5 26 L 46.5 31 L 50.5 26 Z "></path><path fill="rgb(173,230,148)" stroke="rgb(173,230,148)" stroke-width="1" opacity="1" d="M 188.5 26 L 192.5 31 L 188.5 26 Z "></path><path fill="rgb(173,230,148)" stroke="rgb(173,230,148)" stroke-width="1" opacity="1" d="M 347.5 26 L 345.5 29 L 347.5 26 Z "></path><path fill="rgb(173,230,148)" stroke="rgb(173,230,148)" stroke-width="1" opacity="1" d="M 114.5 30 L 113.5 32 L 114.5 30 Z "></path><path fill="rgb(173,230,148)" stroke="rgb(173,230,148)" stroke-width="1" opacity="1" d="M 410.5 30 L 408.5 33 L 410.5 30 Z "></path><path fill="rgb(173,230,148)" stroke="rgb(173,230,148)" stroke-width="1" opacity="1" d="M 123.5 31 L 124.5 33 L 123.5 31 Z "></path><path fill="rgb(173,230,148)" stroke="rgb(173,230,148)" stroke-width="1" opacity="1" d="M 343.5 31 L 341.5 34 L 343.5 31 Z "></path><path fill="rgb(173,230,148)" stroke="rgb(173,230,148)" stroke-width="1" opacity="1" d="M 406.5 35 L 404.5 38 L 406.5 35 Z "></path><path fill="rgb(173,230,148)" stroke="rgb(173,230,148)" stroke-width="1" opacity="1" d="M 339.5 36 L 337.5 39 L 339.5 36 Z "></path><path fill="rgb(173,230,148)" stroke="rgb(173,230,148)" stroke-width="1" opacity="1" d="M 110.5 37 L 109.5 39 L 110.5 37 Z "></path><path fill="rgb(173,230,148)" stroke="rgb(173,230,148)" stroke-width="1" opacity="1" d="M 200.5 38 L 203.5 42 L 200.5 38 Z "></path><path fill="rgb(173,230,148)" stroke="rgb(173,230,148)" stroke-width="1" opacity="1" d="M 36.5 40 L 33.5 44 L 36.5 40 Z "></path><path fill="rgb(173,230,148)" stroke="rgb(173,230,148)" stroke-width="1" opacity="1" d="M 402.5 40 L 400.5 43 L 402.5 40 Z "></path><path fill="rgb(173,230,148)" stroke="rgb(173,230,148)" stroke-width="1" opacity="1" d="M 334.5 42 L 332.5 45 L 334.5 42 Z "></path><path fill="rgb(173,230,148)" stroke="rgb(173,230,148)" stroke-width="1" opacity="1" d="M 106.5 44 L 105.5 46 L 106.5 44 Z "></path><path fill="rgb(173,230,148)" stroke="rgb(173,230,148)" stroke-width="1" opacity="1" d="M 32.5 45 L 30.5 48 L 32.5 45 Z "></path><path fill="rgb(173,230,148)" stroke="rgb(173,230,148)" stroke-width="1" opacity="1" d="M 206.5 45 L 207.5 47 L 206.5 45 Z "></path><path fill="rgb(173,230,148)" stroke="rgb(173,230,148)" stroke-width="1" opacity="1" d="M 397.5 46 L 395.5 49 L 397.5 46 Z "></path><path fill="rgb(173,230,148)" stroke="rgb(173,230,148)" stroke-width="1" opacity="1" d="M 330.5 47 L 328.5 50 L 330.5 47 Z "></path><path fill="rgb(173,230,148)" stroke="rgb(173,230,148)" stroke-width="1" opacity="1" d="M 208.5 48 L 209.5 50 L 208.5 48 Z "></path><path fill="rgb(173,230,148)" stroke="rgb(173,230,148)" stroke-width="1" opacity="1" d="M 28.5 50 L 27.5 52 L 28.5 50 Z "></path><path fill="rgb(173,230,148)" stroke="rgb(173,230,148)" stroke-width="1" opacity="1" d="M 134.5 50 L 135.5 52 L 134.5 50 Z "></path><path fill="rgb(173,230,148)" stroke="rgb(173,230,148)" stroke-width="1" opacity="1" d="M 393.5 51 L 391.5 54 L 393.5 51 Z "></path><path fill="rgb(173,230,148)" stroke="rgb(173,230,148)" stroke-width="1" opacity="1" d="M 326.5 52 L 324.5 55 L 326.5 52 Z "></path><path fill="rgb(173,230,148)" stroke="rgb(173,230,148)" stroke-width="1" opacity="1" d="M 389.5 56 L 387.5 59 L 389.5 56 Z "></path><path fill="rgb(173,230,148)" stroke="rgb(173,230,148)" stroke-width="1" opacity="1" d="M 138.5 57 L 139.5 59 L 138.5 57 Z "></path><path fill="rgb(173,230,148)" stroke="rgb(173,230,148)" stroke-width="1" opacity="1" d="M 23.5 58 L 22.5 60 L 23.5 58 Z "></path><path fill="rgb(173,230,148)" stroke="rgb(173,230,148)" stroke-width="1" opacity="1" d="M 321.5 58 L 319.5 61 L 321.5 58 Z "></path><path fill="rgb(173,230,148)" stroke="rgb(173,230,148)" stroke-width="1" opacity="1" d="M 215.5 59 L 216.5 61 L 215.5 59 Z "></path><path fill="rgb(173,230,148)" stroke="rgb(173,230,148)" stroke-width="1" opacity="1" d="M 385.5 61 L 383.5 64 L 385.5 61 Z "></path><path fill="rgb(173,230,148)" stroke="rgb(173,230,148)" stroke-width="1" opacity="1" d="M 95.5 63 L 94.5 65 L 95.5 63 Z "></path><path fill="rgb(173,230,148)" stroke="rgb(173,230,148)" stroke-width="1" opacity="1" d="M 317.5 63 L 315.5 66 L 317.5 63 Z "></path><path fill="rgb(173,230,148)" stroke="rgb(173,230,148)" stroke-width="1" opacity="1" d="M 142.5 64 L 143.5 66 L 142.5 64 Z "></path><path fill="rgb(173,230,148)" stroke="rgb(173,230,148)" stroke-width="1" opacity="1" d="M 380.5 67 L 378.5 70 L 380.5 67 Z "></path><path fill="rgb(173,230,148)" stroke="rgb(173,230,148)" stroke-width="1" opacity="1" d="M 313.5 68 L 311.5 71 L 313.5 68 Z "></path><path fill="rgb(173,230,148)" stroke="rgb(173,230,148)" stroke-width="1" opacity="1" d="M 91.5 70 L 90.5 72 L 91.5 70 Z "></path><path fill="rgb(173,230,148)" stroke="rgb(173,230,148)" stroke-width="1" opacity="1" d="M 146.5 71 L 147.5 73 L 146.5 71 Z "></path><path fill="rgb(173,230,148)" stroke="rgb(173,230,148)" stroke-width="1" opacity="1" d="M 376.5 72 L 374.5 75 L 376.5 72 Z "></path><path fill="rgb(173,230,148)" stroke="rgb(173,230,148)" stroke-width="1" opacity="1" d="M 308.5 74 L 306.5 77 L 308.5 74 Z "></path><path fill="rgb(173,230,148)" stroke="rgb(173,230,148)" stroke-width="1" opacity="1" d="M 87.5 77 L 86.5 79 L 87.5 77 Z "></path><path fill="rgb(173,230,148)" stroke="rgb(173,230,148)" stroke-width="1" opacity="1" d="M 372.5 77 L 370.5 80 L 372.5 77 Z "></path><path fill="rgb(173,230,148)" stroke="rgb(173,230,148)" stroke-width="1" opacity="1" d="M 150.5 78 L 151.5 80 L 150.5 78 Z "></path><path fill="rgb(173,230,148)" stroke="rgb(173,230,148)" stroke-width="1" opacity="1" d="M 304.5 79 L 302.5 82 L 304.5 79 Z "></path><path fill="rgb(173,230,148)" stroke="rgb(173,230,148)" stroke-width="1" opacity="1" d="M 368.5 82 L 366.5 85 L 368.5 82 Z "></path><path fill="rgb(173,230,148)" stroke="rgb(173,230,148)" stroke-width="1" opacity="1" d="M 83.5 84 L 82.5 86 L 83.5 84 Z "></path><path fill="rgb(173,230,148)" stroke="rgb(173,230,148)" stroke-width="1" opacity="1" d="M 300.5 84 L 298.5 87 L 300.5 84 Z "></path><path fill="rgb(173,230,148)" stroke="rgb(173,230,148)" stroke-width="1" opacity="1" d="M 363.5 88 L 361.5 91 L 363.5 88 Z "></path><path fill="rgb(173,230,148)" stroke="rgb(173,230,148)" stroke-width="1" opacity="1" d="M 295.5 90 L 293.5 93 L 295.5 90 Z "></path><path fill="rgb(173,230,148)" stroke="rgb(173,230,148)" stroke-width="1" opacity="1" d="M 79.5 91 L 78.5 93 L 79.5 91 Z "></path><path fill="rgb(173,230,148)" stroke="rgb(173,230,148)" stroke-width="1" opacity="1" d="M 9.5 92 L 10 94.5 L 9 94.5 L 9.5 92 Z "></path><path fill="rgb(173,230,148)" stroke="rgb(173,230,148)" stroke-width="1" opacity="1" d="M 359.5 93 L 357.5 96 L 359.5 93 Z "></path><path fill="rgb(173,230,148)" stroke="rgb(173,230,148)" stroke-width="1" opacity="1" d="M 291.5 95 L 289.5 98 L 291.5 95 Z "></path><path fill="rgb(173,230,148)" stroke="rgb(173,230,148)" stroke-width="1" opacity="1" d="M 8.5 97 L 9 99.5 L 8 99.5 L 8.5 97 Z "></path><path fill="rgb(173,230,148)" stroke="rgb(173,230,148)" stroke-width="1" opacity="1" d="M 355.5 98 L 353.5 101 L 355.5 98 Z "></path><path fill="rgb(173,230,148)" stroke="rgb(173,230,148)" stroke-width="1" opacity="1" d="M 7.5 103 L 8 106.5 L 7 106.5 L 7.5 103 Z "></path><path fill="rgb(173,230,148)" stroke="rgb(173,230,148)" stroke-width="1" opacity="1" d="M 141.5 104 L 140.5 106 L 141.5 104 Z "></path><path fill="rgb(173,230,148)" stroke="rgb(173,230,148)" stroke-width="1" opacity="1" d="M 350.5 104 L 349.5 106 L 350.5 104 Z "></path><path fill="rgb(173,230,148)" stroke="rgb(173,230,148)" stroke-width="1" opacity="1" d="M 347.5 108 L 349 110.5 L 347 109.5 L 347.5 108 Z "></path><path fill="rgb(173,230,148)" stroke="rgb(173,230,148)" stroke-width="1" opacity="1" d="M 143.5 111 L 141.5 114 L 143.5 111 Z "></path><path fill="rgb(173,230,148)" stroke="rgb(173,230,148)" stroke-width="1" opacity="1" d="M 349.5 112 L 350.5 114 L 349.5 112 Z "></path><path fill="rgb(173,230,148)" stroke="rgb(173,230,148)" stroke-width="1" opacity="1" d="M 6.5 113 L 7 128.5 L 6 128.5 L 6.5 113 Z "></path><path fill="rgb(173,230,148)" stroke="rgb(173,230,148)" stroke-width="1" opacity="1" d="M 127.5 118 L 126.5 120 L 127.5 118 Z "></path><path fill="rgb(173,230,148)" stroke="rgb(173,230,148)" stroke-width="1" opacity="1" d="M 354.5 119 L 355.5 121 L 354.5 119 Z "></path><path fill="rgb(173,230,148)" stroke="rgb(173,230,148)" stroke-width="1" opacity="1" d="M 356.5 122 L 357.5 124 L 356.5 122 Z "></path><path fill="rgb(173,230,148)" stroke="rgb(173,230,148)" stroke-width="1" opacity="1" d="M 132.5 125 L 131.5 127 L 132.5 125 Z "></path><path fill="rgb(173,230,148)" stroke="rgb(173,230,148)" stroke-width="1" opacity="1" d="M 359.5 126 L 360.5 128 L 359.5 126 Z "></path><path fill="rgb(173,230,148)" stroke="rgb(173,230,148)" stroke-width="1" opacity="1" d="M 173.5 128 L 174 130.5 L 173 130.5 L 173.5 128 Z "></path><path fill="rgb(173,230,148)" stroke="rgb(173,230,148)" stroke-width="1" opacity="1" d="M 361.5 129 L 362.5 131 L 361.5 129 Z "></path><path fill="rgb(173,230,148)" stroke="rgb(173,230,148)" stroke-width="1" opacity="1" d="M 63.5 131 L 64 133.5 L 63 133.5 L 63.5 131 Z "></path><path fill="rgb(173,230,148)" stroke="rgb(173,230,148)" stroke-width="1" opacity="1" d="M 363.5 132 L 364.5 134 L 363.5 132 Z "></path><path fill="rgb(173,230,148)" stroke="rgb(173,230,148)" stroke-width="1" opacity="1" d="M 7.5 134 L 8 138.5 L 7 138.5 L 7.5 134 Z "></path><path fill="rgb(173,230,148)" stroke="rgb(173,230,148)" stroke-width="1" opacity="1" d="M 174.5 134 L 175 140.5 L 174 140.5 L 174.5 134 Z "></path><path fill="rgb(173,230,148)" stroke="rgb(173,230,148)" stroke-width="1" opacity="1" d="M 366.5 136 L 367.5 138 L 366.5 136 Z "></path><path fill="rgb(173,230,148)" stroke="rgb(173,230,148)" stroke-width="1" opacity="1" d="M 368.5 139 L 369.5 141 L 368.5 139 Z "></path><path fill="rgb(173,230,148)" stroke="rgb(173,230,148)" stroke-width="1" opacity="1" d="M 8.5 141 L 9 143.5 L 8 143.5 L 8.5 141 Z "></path><path fill="rgb(173,230,148)" stroke="rgb(173,230,148)" stroke-width="1" opacity="1" d="M 63.5 141 L 64 145.5 L 63 145.5 L 63.5 141 Z "></path><path fill="rgb(173,230,148)" stroke="rgb(173,230,148)" stroke-width="1" opacity="1" d="M 82.5 141 L 83.5 143 L 82.5 141 Z "></path><path fill="rgb(173,230,148)" stroke="rgb(173,230,148)" stroke-width="1" opacity="1" d="M 308.5 145 L 310 145.5 L 305.5 149 L 308.5 145 Z "></path><path fill="rgb(173,230,148)" stroke="rgb(173,230,148)" stroke-width="1" opacity="1" d="M 173.5 146 L 174 148.5 L 173 148.5 L 173.5 146 Z "></path><path fill="rgb(173,230,148)" stroke="rgb(173,230,148)" stroke-width="1" opacity="1" d="M 373.5 146 L 374.5 148 L 373.5 146 Z "></path><path fill="rgb(173,230,148)" stroke="rgb(173,230,148)" stroke-width="1" opacity="1" d="M 310.5 147 L 311.5 149 L 310.5 147 Z "></path><path fill="rgb(173,230,148)" stroke="rgb(173,230,148)" stroke-width="1" opacity="1" d="M 98.5 149 L 99.5 151 L 98.5 149 Z "></path><path fill="rgb(173,230,148)" stroke="rgb(173,230,148)" stroke-width="1" opacity="1" d="M 375.5 149 L 376.5 151 L 375.5 149 Z "></path><path fill="rgb(173,230,148)" stroke="rgb(173,230,148)" stroke-width="1" opacity="1" d="M 312.5 150 L 313.5 152 L 312.5 150 Z "></path><path fill="rgb(173,230,148)" stroke="rgb(173,230,148)" stroke-width="1" opacity="1" d="M 302.5 152 L 298.5 157 L 302.5 152 Z "></path><path fill="rgb(173,230,148)" stroke="rgb(173,230,148)" stroke-width="1" opacity="1" d="M 314.5 153 L 315.5 155 L 314.5 153 Z "></path><path fill="rgb(173,230,148)" stroke="rgb(173,230,148)" stroke-width="1" opacity="1" d="M 316.5 156 L 317.5 158 L 316.5 156 Z "></path><path fill="rgb(173,230,148)" stroke="rgb(173,230,148)" stroke-width="1" opacity="1" d="M 380.5 156 L 381.5 158 L 380.5 156 Z "></path><path fill="rgb(173,230,148)" stroke="rgb(173,230,148)" stroke-width="1" opacity="1" d="M 318.5 159 L 319.5 161 L 318.5 159 Z "></path><path fill="rgb(173,230,148)" stroke="rgb(173,230,148)" stroke-width="1" opacity="1" d="M 382.5 159 L 383.5 161 L 382.5 159 Z "></path><path fill="rgb(173,230,148)" stroke="rgb(173,230,148)" stroke-width="1" opacity="1" d="M 295.5 160 L 291.5 165 L 295.5 160 Z "></path><path fill="rgb(173,230,148)" stroke="rgb(173,230,148)" stroke-width="1" opacity="1" d="M 320.5 162 L 321.5 164 L 320.5 162 Z "></path><path fill="rgb(173,230,148)" stroke="rgb(173,230,148)" stroke-width="1" opacity="1" d="M 385.5 163 L 386.5 165 L 385.5 163 Z "></path><path fill="rgb(173,230,148)" stroke="rgb(173,230,148)" stroke-width="1" opacity="1" d="M 322.5 165 L 323.5 167 L 322.5 165 Z "></path><path fill="rgb(173,230,148)" stroke="rgb(173,230,148)" stroke-width="1" opacity="1" d="M 387.5 166 L 388.5 168 L 387.5 166 Z "></path><path fill="rgb(173,230,148)" stroke="rgb(173,230,148)" stroke-width="1" opacity="1" d="M 223.5 168 L 224 238.5 L 223 238.5 L 223 170.5 L 222 169.5 L 223.5 168 Z "></path><path fill="rgb(173,230,148)" stroke="rgb(173,230,148)" stroke-width="1" opacity="1" d="M 165.5 169 L 164.5 171 L 165.5 169 Z "></path><path fill="rgb(173,230,148)" stroke="rgb(173,230,148)" stroke-width="1" opacity="1" d="M 389.5 169 L 390.5 171 L 389.5 169 Z "></path><path fill="rgb(173,230,148)" stroke="rgb(173,230,148)" stroke-width="1" opacity="1" d="M 100.5 171 L 101.5 173 L 100.5 171 Z "></path><path fill="rgb(173,230,148)" stroke="rgb(173,230,148)" stroke-width="1" opacity="1" d="M 163.5 172 L 162.5 174 L 163.5 172 Z "></path><path fill="rgb(173,230,148)" stroke="rgb(173,230,148)" stroke-width="1" opacity="1" d="M 392.5 173 L 393.5 175 L 392.5 173 Z "></path><path fill="rgb(173,230,148)" stroke="rgb(173,230,148)" stroke-width="1" opacity="1" d="M 75.5 174 L 76.5 176 L 75.5 174 Z "></path><path fill="rgb(173,230,148)" stroke="rgb(173,230,148)" stroke-width="1" opacity="1" d="M 160.5 176 L 151.5 186 L 160.5 176 Z "></path><path fill="rgb(173,230,148)" stroke="rgb(173,230,148)" stroke-width="1" opacity="1" d="M 394.5 176 L 395.5 178 L 394.5 176 Z "></path><path fill="rgb(173,230,148)" stroke="rgb(173,230,148)" stroke-width="1" opacity="1" d="M 79.5 179 L 82.5 183 L 79.5 179 Z "></path><path fill="rgb(173,230,148)" stroke="rgb(173,230,148)" stroke-width="1" opacity="1" d="M 22.5 182 L 23.5 184 L 22.5 182 Z "></path><path fill="rgb(173,230,148)" stroke="rgb(173,230,148)" stroke-width="1" opacity="1" d="M 216.5 182 L 215.5 184 L 216.5 182 Z "></path><path fill="rgb(173,230,148)" stroke="rgb(173,230,148)" stroke-width="1" opacity="1" d="M 399.5 183 L 400.5 185 L 399.5 183 Z "></path><path fill="rgb(173,230,148)" stroke="rgb(173,230,148)" stroke-width="1" opacity="1" d="M 86.5 185 L 87.5 187 L 86.5 185 Z "></path><path fill="rgb(173,230,148)" stroke="rgb(173,230,148)" stroke-width="1" opacity="1" d="M 149.5 186 L 148.5 188 L 149.5 186 Z "></path><path fill="rgb(173,230,148)" stroke="rgb(173,230,148)" stroke-width="1" opacity="1" d="M 401.5 186 L 402.5 188 L 401.5 186 Z "></path><path fill="rgb(173,230,148)" stroke="rgb(173,230,148)" stroke-width="1" opacity="1" d="M 25.5 187 L 26.5 189 L 25.5 187 Z "></path><path fill="rgb(173,230,148)" stroke="rgb(173,230,148)" stroke-width="1" opacity="1" d="M 146.5 188 L 145.5 190 L 146.5 188 Z "></path><path fill="rgb(173,230,148)" stroke="rgb(173,230,148)" stroke-width="1" opacity="1" d="M 337.5 188 L 338.5 190 L 337.5 188 Z "></path><path fill="rgb(173,230,148)" stroke="rgb(173,230,148)" stroke-width="1" opacity="1" d="M 211.5 190 L 210.5 192 L 211.5 190 Z "></path><path fill="rgb(173,230,148)" stroke="rgb(173,230,148)" stroke-width="1" opacity="1" d="M 339.5 191 L 340.5 193 L 339.5 191 Z "></path><path fill="rgb(173,230,148)" stroke="rgb(173,230,148)" stroke-width="1" opacity="1" d="M 29.5 193 L 30.5 195 L 29.5 193 Z "></path><path fill="rgb(173,230,148)" stroke="rgb(173,230,148)" stroke-width="1" opacity="1" d="M 406.5 193 L 407.5 195 L 406.5 193 Z "></path><path fill="rgb(173,230,148)" stroke="rgb(173,230,148)" stroke-width="1" opacity="1" d="M 208.5 194 L 207.5 196 L 208.5 194 Z "></path><path fill="rgb(173,230,148)" stroke="rgb(173,230,148)" stroke-width="1" opacity="1" d="M 341.5 194 L 342.5 196 L 341.5 194 Z "></path><path fill="rgb(173,230,148)" stroke="rgb(173,230,148)" stroke-width="1" opacity="1" d="M 106.5 195 L 109 195.5 L 106.5 196 L 106.5 195 Z "></path><path fill="rgb(173,230,148)" stroke="rgb(173,230,148)" stroke-width="1" opacity="1" d="M 112.5 196 L 126 196.5 L 112.5 197 L 112.5 196 Z "></path><path fill="rgb(173,230,148)" stroke="rgb(173,230,148)" stroke-width="1" opacity="1" d="M 408.5 196 L 409.5 198 L 408.5 196 Z "></path><path fill="rgb(173,230,148)" stroke="rgb(173,230,148)" stroke-width="1" opacity="1" d="M 32.5 197 L 33.5 199 L 32.5 197 Z "></path><path fill="rgb(173,230,148)" stroke="rgb(173,230,148)" stroke-width="1" opacity="1" d="M 343.5 197 L 344.5 199 L 343.5 197 Z "></path><path fill="rgb(173,230,148)" stroke="rgb(173,230,148)" stroke-width="1" opacity="1" d="M 205.5 198 L 204.5 200 L 205.5 198 Z "></path><path fill="rgb(173,230,148)" stroke="rgb(173,230,148)" stroke-width="1" opacity="1" d="M 345.5 200 L 346.5 202 L 345.5 200 Z "></path><path fill="rgb(173,230,148)" stroke="rgb(173,230,148)" stroke-width="1" opacity="1" d="M 411.5 200 L 412.5 202 L 411.5 200 Z "></path><path fill="rgb(173,230,148)" stroke="rgb(173,230,148)" stroke-width="1" opacity="1" d="M 35.5 201 L 39.5 206 L 35.5 201 Z "></path><path fill="rgb(173,230,148)" stroke="rgb(173,230,148)" stroke-width="1" opacity="1" d="M 201.5 203 L 192.5 213 L 201.5 203 Z "></path><path fill="rgb(173,230,148)" stroke="rgb(173,230,148)" stroke-width="1" opacity="1" d="M 347.5 203 L 348.5 205 L 347.5 203 Z "></path><path fill="rgb(173,230,148)" stroke="rgb(173,230,148)" stroke-width="1" opacity="1" d="M 413.5 203 L 414.5 205 L 413.5 203 Z "></path><path fill="rgb(173,230,148)" stroke="rgb(173,230,148)" stroke-width="1" opacity="1" d="M 349.5 206 L 350.5 208 L 349.5 206 Z "></path><path fill="rgb(173,230,148)" stroke="rgb(173,230,148)" stroke-width="1" opacity="1" d="M 415.5 206 L 416.5 208 L 415.5 206 Z "></path><path fill="rgb(173,230,148)" stroke="rgb(173,230,148)" stroke-width="1" opacity="1" d="M 43.5 209 L 49.5 216 L 43.5 209 Z "></path><path fill="rgb(173,230,148)" stroke="rgb(173,230,148)" stroke-width="1" opacity="1" d="M 351.5 209 L 352.5 211 L 351.5 209 Z "></path><path fill="rgb(173,230,148)" stroke="rgb(173,230,148)" stroke-width="1" opacity="1" d="M 418.5 210 L 419.5 212 L 418.5 210 Z "></path><path fill="rgb(173,230,148)" stroke="rgb(173,230,148)" stroke-width="1" opacity="1" d="M 353.5 212 L 354.5 214 L 353.5 212 Z "></path><path fill="rgb(173,230,148)" stroke="rgb(173,230,148)" stroke-width="1" opacity="1" d="M 420.5 213 L 421.5 215 L 420.5 213 Z "></path><path fill="rgb(173,230,148)" stroke="rgb(173,230,148)" stroke-width="1" opacity="1" d="M 355.5 215 L 356.5 217 L 355.5 215 Z "></path><path fill="rgb(173,230,148)" stroke="rgb(173,230,148)" stroke-width="1" opacity="1" d="M 187.5 216 L 186.5 218 L 187.5 216 Z "></path><path fill="rgb(173,230,148)" stroke="rgb(173,230,148)" stroke-width="1" opacity="1" d="M 52.5 217 L 53.5 219 L 52.5 217 Z "></path><path fill="rgb(173,230,148)" stroke="rgb(173,230,148)" stroke-width="1" opacity="1" d="M 183.5 219 L 182.5 221 L 183.5 219 Z "></path><path fill="rgb(173,230,148)" stroke="rgb(173,230,148)" stroke-width="1" opacity="1" d="M 56.5 220 L 57.5 222 L 56.5 220 Z "></path><path fill="rgb(173,230,148)" stroke="rgb(173,230,148)" stroke-width="1" opacity="1" d="M 425.5 220 L 426.5 222 L 425.5 220 Z "></path><path fill="rgb(173,230,148)" stroke="rgb(173,230,148)" stroke-width="1" opacity="1" d="M 177.5 223 L 176.5 225 L 177.5 223 Z "></path><path fill="rgb(173,230,148)" stroke="rgb(173,230,148)" stroke-width="1" opacity="1" d="M 427.5 223 L 428.5 225 L 427.5 223 Z "></path><path fill="rgb(173,230,148)" stroke="rgb(173,230,148)" stroke-width="1" opacity="1" d="M 62.5 224 L 63.5 226 L 62.5 224 Z "></path><path fill="rgb(173,230,148)" stroke="rgb(173,230,148)" stroke-width="1" opacity="1" d="M 172.5 226 L 171.5 228 L 172.5 226 Z "></path><path fill="rgb(173,230,148)" stroke="rgb(173,230,148)" stroke-width="1" opacity="1" d="M 67.5 227 L 68.5 229 L 67.5 227 Z "></path><path fill="rgb(173,230,148)" stroke="rgb(173,230,148)" stroke-width="1" opacity="1" d="M 432.5 230 L 433.5 232 L 432.5 230 Z "></path><path fill="rgb(173,230,148)" stroke="rgb(173,230,148)" stroke-width="1" opacity="1" d="M 434.5 233 L 435.5 235 L 434.5 233 Z "></path><path fill="rgb(173,230,148)" stroke="rgb(173,230,148)" stroke-width="1" opacity="1" d="M 140.5 238 L 143 238.5 L 140.5 239 L 140.5 238 Z "></path><path fill="rgb(173,230,148)" stroke="rgb(173,230,148)" stroke-width="1" opacity="1" d="M 100.5 239 L 103 239.5 L 100.5 240 L 100.5 239 Z "></path><path fill="rgb(173,230,148)" stroke="rgb(173,230,148)" stroke-width="1" opacity="1" d="M 135.5 239 L 138 239.5 L 135.5 240 L 135.5 239 Z "></path><path fill="rgb(173,230,148)" stroke="rgb(173,230,148)" stroke-width="1" opacity="1" d="M 108.5 240 L 113 240.5 L 108.5 241 L 108.5 240 Z "></path><path fill="rgb(173,230,148)" stroke="rgb(173,230,148)" stroke-width="1" opacity="1" d="M 125.5 240 L 130 240.5 L 125.5 241 L 125.5 240 Z "></path><path fill="rgb(253,216,70)" stroke="rgb(253,216,70)" stroke-width="1" opacity="1" d="M 149.5 99 L 152 102.5 Q 138.7 114.2 129 129.5 L 117 152.5 L 113 166.5 L 108.5 173 L 104.5 174 L 99 169.5 Q 92 151.5 80 138.5 Q 81.8 136.3 86.5 137 L 103.5 156 Q 116.8 126.3 139.5 106 L 149.5 99 Z "></path></svg>